<svg xmlns="http://www.w3.org/2000/svg" viewBox="0 0 174.5 184.12"><defs><style>.cls-1{fill:#f5af61;}.cls-2{fill:#dd8233;}.cls-3{fill:#d56a1f;}.cls-4{fill:none;}.cls-5{fill:#bb5d14;}.cls-6{fill:#fff;}</style></defs><title>breadbeardArtboard 1</title><g id="Layer_8" data-name="Layer 8"><g id="Layer_13" data-name="Layer 13"><path class="cls-1" d="M88,167.62a10,10,0,0,1,7.07-2.94,10,10,0,0,1,12.55-11.62,10.25,10.25,0,0,1,.1-1.06A10,10,0,0,1,121,143.88h0c3.4-14.44,7.65-34.61,8-51.41.08-3.88-.88-6.71-2.53-8.74C120.88,76.86,108,79.35,94.36,81a324.65,324.65,0,0,1-46.22,2.33l-.5,7.77s-3.6,17.34,1.78,45.47,13.45,33.27,19.7,36.6a52.75,52.75,0,0,0,16.64,5.11A10,10,0,0,1,88,167.62Z"/></g><path class="cls-2" d="M53.84,83.44c-1.46,20.81-2.07,29.88,1.26,46.82s4.13,22.38,9.17,29.64,13.32,10.28,18.26,11.49c5.24,1.28,11.88,3.22,15,0,2.44-2.54.5-5.94,3.25-9.38,2.62-3.28,6.3-2.59,9.46-3.93,7.45-3.18,8.3-16.12,10.2-48.39.6-10.28,1.21-20.38,0-24.25s-58.67-13-62.63-7.49Z"/><g id="Layer_9" data-name="Layer 9"><path class="cls-3" d="M58.42,86.64c0,3.39-2.46,8.84-.63,21.84s6.47,30.24,6.47,30.24-.19,11.49,4.84,16.63,13.41,8.47,13.41,8.47,9.06,1.21,11.84-1.21,9.88-3.63,11-10,1.14-14.28,2.8-19.09,2-4.2,3.47-13.28,4.09-19.49,3.25-27.59-1.66-10.56-4.68-13.51-34.46-6.94-34.46-6.94Z"/></g><g id="Layer_10" data-name="Layer 10"><path class="cls-1" d="M86.92,81.06c-.84.47-2.15,1.2-3.78,2.06-12.09,6.39-15.06,6.66-18.32,10.4-3.43,3.93-4.65,12.7,1.56,10s31-6.65,34.35-8.47,11.6-9.93,12.69-11.79S102.92,76.9,96.83,79a4.72,4.72,0,0,1-1.71.18A42.33,42.33,0,0,0,86.92,81.06Z"/><path class="cls-1" d="M105.38,108.69c-12,3.74-18.71,3.42-22.85,6.14s-10.28,6.58-13.41,9.49-6.36,5.22,1.61,4.67,13-1.83,23.64-4.67,12.85-9.26,15.86-11S109.09,107.53,105.38,108.69Z"/><path class="cls-1" d="M89.39,139c-8.23,3.33-12.13,1.51-15.32,5.75s-9.21,10,0,7.26,10.61-3.33,20-8.77,18.35-11.19,11-9.38A146.09,146.09,0,0,0,89.39,139Z"/></g><g id="Layer_12" data-name="Layer 12"><path class="cls-4" d="M88,181.81a10,10,0,0,0,3.6,2.3,10.1,10.1,0,0,1-.28-5.33,50.63,50.63,0,0,1-5.59-.47A10,10,0,0,0,88,181.81Z"/><path class="cls-4" d="M121,143.88c-.57,2.41-1.11,4.66-1.61,6.7a10.1,10.1,0,0,1,8-.36A10.14,10.14,0,0,0,121,143.88Z"/><path class="cls-1" d="M119.25,143.45A10.14,10.14,0,0,0,107.74,152a10.25,10.25,0,0,0-.1,1.06,10,10,0,0,0-12.55,11.62,10,10,0,0,0-9.34,13.63,50.63,50.63,0,0,0,5.59.47,10,10,0,0,1,9.77-7.88,10,10,0,0,1,12.55-11.62,10.25,10.25,0,0,1,.1-1.06,10.12,10.12,0,0,1,5.61-7.64c.5-2,1-4.29,1.61-6.7A10.1,10.1,0,0,0,119.25,143.45Z"/></g></g><g id="Layer_1" data-name="Layer 1"><g id="Layer_5" data-name="Layer 5"><path class="cls-1" d="M21.48,56.06c2.06-2.44,5.67-3,6-3a9.54,9.54,0,0,0,3.33-.76,8,8,0,0,0,1.66-1.06c1.87-1.47,4.54-1.93,6.5-2.27,3.74-.64,7.51-1.29,10.28.76,1.35,1,2.28,2.49,4.69,3.18a8.28,8.28,0,0,0,2,.3c2.59.13,8.79.43,13.46,3.18a26.27,26.27,0,0,1,7.26,6.81,11.38,11.38,0,0,0,1.21,1.51,12.93,12.93,0,0,0,3.93,2.72c2.58,1.39,3.32,4.73,4.69,10.89,1.11,5,.58,6.87-.15,8-.26.41-1,1.63-2.12,1.66-.86,0-1.21-.73-2.42-1.06a4.72,4.72,0,0,0-2.57.15,26.37,26.37,0,0,1-7,.6c-3.51-.14-4.12-1.39-8.32-1.36-.88,0-1.5.06-2.42.15-3.63.34-3.93.88-7.86,1.51-2.3.37-3.24.35-4.39,1.21s-.93,1.28-1.66,2c-2.88,2.72-10.56.77-13.91-2.12A7.07,7.07,0,0,0,32.22,88a8.42,8.42,0,0,0-5.29-.6,9.9,9.9,0,0,0-2.72.91A16.76,16.76,0,0,0,16,91a21.1,21.1,0,0,1-3.63,2.42,11.36,11.36,0,0,1-5.9,1.21,5.61,5.61,0,0,1-3.63-1.36A5.1,5.1,0,0,1,1.67,91C.52,87.47-.06,85.71,0,84a16.77,16.77,0,0,1,1.36-5.9c.21-.44.37-1.12.6-1.81.68-2,1.25-3.63,1.36-3.93a19.3,19.3,0,0,1,6.5-9.07,23.09,23.09,0,0,1,7-3.18,5.56,5.56,0,0,0,2.27-.91C20.47,58.27,20.4,57.33,21.48,56.06Z"/></g><g id="Layer_4" data-name="Layer 4"><path class="cls-4" d="M69.12,85.57c-.19-1.53,1.72-3,3.32-3.64a7.51,7.51,0,0,1,3-.31c5-.08,7.48-7.32,9.66-6.68a1.56,1.56,0,0,1,.82.69c-.78-3.38-1.47-5.67-2.7-7.1a28.24,28.24,0,0,1-2.18,3.71c-.34.51-3.92,5.93-5.29,5.29-1-.46-.33-4,0-5.29A14.26,14.26,0,0,1,78,67.4a22,22,0,0,1,2.08-.94,11,11,0,0,1-2.19-1.78,11.38,11.38,0,0,1-1.21-1.51,26.27,26.27,0,0,0-7.26-6.81C64.79,53.61,58.58,53.31,56,53.19a8.28,8.28,0,0,1-2-.3c-2.41-.68-3.34-2.18-4.69-3.18-2.77-2-6.54-1.4-10.28-.76-2,.34-4.63.8-6.5,2.27a8,8,0,0,1-1.66,1.06,9.54,9.54,0,0,1-3.33.76c-.38.05-4,.59-6,3-1.08,1.28-1,2.21-2.42,3.18a5.56,5.56,0,0,1-2.27.91,23.09,23.09,0,0,0-7,3.18,19.3,19.3,0,0,0-6.5,9.07c-.11.3-.68,1.93-1.36,3.93-.24.7-.4,1.38-.6,1.81A16.77,16.77,0,0,0,0,84C0,85.71.56,87.47,1.71,91a5.1,5.1,0,0,0,1.21,2.27,5.61,5.61,0,0,0,3.63,1.36,11.36,11.36,0,0,0,5.9-1.21A20,20,0,0,0,16,91L15.88,91c-4-2.13-1.71-12.19-1.36-13.76.86-3.84,2.54-7.57,3.48-7.41.6.1.27,1.67,1.66,4.39.7,1.36,1.16,1.69,2.12,3.63.66,1.32.48,1.25,1.06,2.42,1.25,2.54,2.05,2.84,2.72,4.84a4.3,4.3,0,0,1,.37,2.51,9.79,9.79,0,0,1,1-.24,8.42,8.42,0,0,1,5.29.6l0,0c-.9-1.19-1.19-2.61-.84-2.9.52-.43,2.15,1.84,4.23,1.51,1.27-.2,1.35-1.15,2.87-2,2.62-1.4,4.49.3,5.75-.76,1.53-1.28-.58-4.35-.45-9.83.09-4.07,1.39-8.67,2.87-8.77,1.14-.08,2.19,2.52,2.57,3.48,1.12,2.78,1.11,5.47,1.06,9.22a22.55,22.55,0,0,0,.45,5.44c.25,1.17.59,2.66,1.21,2.72.8.08,1.64-2.23,1.81-2.72,1.21-3.33.41-5.53,1.06-5.75s1.83,1.6,2.9,3.72a8.41,8.41,0,0,1,1.94-1.9c1.94-1.33,3.41-.75,4.54-2.27,1-1.29.35-2.31,1.06-4.23.57-1.55,1.59-2.38,3.48-4.08,2.1-1.9,3.69-3.33,4.54-2.87,1.16.62.25,4.41,0,5.44-.45,1.88-.88,2.42-2.87,6.65a54.38,54.38,0,0,1-3.63,7.11c-.29.46-.55.84-.78,1.17,1.93.23,2.93.79,4.62,1.08C69.87,86.91,69.22,86.37,69.12,85.57Z"/><path class="cls-4" d="M86.77,79.41a10.19,10.19,0,0,1-.72,3.7,8.84,8.84,0,0,1-3.53,4.06c.7.36,1.07.82,1.75.8,1.08,0,1.86-1.26,2.12-1.66C87.06,85.25,87.57,83.59,86.77,79.41Z"/><path class="cls-4" d="M34.61,89.66a17.25,17.25,0,0,0,6.52,2.56,4.87,4.87,0,0,0-.44-.47C38.78,90,36.56,90.33,34.61,89.66Z"/><path class="cls-2" d="M25.56,85.09c-.67-2-1.47-2.3-2.72-4.84a15,15,0,0,1-.63-1.49c-.2-.5-.38-.84-.42-.92-.61-1.23-1.79-8.14-4.54-11C15,64.45,10.84,63.71,9.75,65c-1.37,1.6,3.64,4.81,4.77,12.26C15.47,83.44,13.3,89.6,15.88,91L16,91l.07-.05a16.76,16.76,0,0,1,8.17-2.72,10,10,0,0,1,1.69-.66A4.3,4.3,0,0,0,25.56,85.09Z"/><path class="cls-2" d="M57.8,81.4c-2.52-11-3.88-12.4-4.56-12.34-1.35.13-2.75,6.38-2,12.1.36,2.64,1.14,4.84.76,5s-1.92-1.88-2.57-4.08a18.06,18.06,0,0,1,0-9.4c2.4-10,.49-19.87,0-19.91s-.29,5.13-2.68,12.52c-1.68,5.19-2.8,5.58-2.87,8.77-.12,5.48,2,8.55.45,9.83-1.26,1.05-3.13-.64-5.75.76-1.64.88-1.77,1.92-2.87,2-2.23.1-3.83-4.16-4.39-3.93-.28.11-.2,1.29,1,5.32a7.17,7.17,0,0,1,1.47,1,9.89,9.89,0,0,0,.84.64c1.95.67,4.17.31,6.08,2.08a4.87,4.87,0,0,1,.44.47c2.62.46,5.15.24,6.55-1.08.73-.69.64-1.2,1.66-2s2.09-.84,4.39-1.21a37.32,37.32,0,0,0,3.76-.79A3.48,3.48,0,0,1,56.71,86C56.14,84.5,56.77,82.78,57.8,81.4Z"/><path class="cls-2" d="M67.9,80.56c.06-.64.21-1.36,2.87-5.75,3.49-5.76,5.8-8.78,5.28-9.34-.33-.36-1.24,0-2.71.57a14.41,14.41,0,0,0-4.54,2.87c-1.89,1.7-2.91,2.53-3.48,4.08-.71,1.92-.1,2.94-1.06,4.23-1.13,1.52-2.59.94-4.54,2.27a8.41,8.41,0,0,0-1.94,1.9c-1,1.38-1.66,3.1-1.08,4.6a3.48,3.48,0,0,0,.77,1.18,23,23,0,0,1,4.11-.72c.92-.09,1.54-.15,2.42-.15a16.06,16.06,0,0,1,2.05.11,7.89,7.89,0,0,0,.78-1.17A10.35,10.35,0,0,0,67.9,80.56Z"/><path class="cls-2" d="M70.93,80.88c.6.56,2.37-.41,3.32-.93,2.63-1.43,4.27-3.9,6.74-7.61l.07-.1a28.24,28.24,0,0,0,2.18-3.71,4.86,4.86,0,0,0-1.39-1.13c-.37-.2-1-.48-1.74-.94A22,22,0,0,0,78,67.4C71.2,77.12,70.19,80.19,70.93,80.88Z"/><path class="cls-2" d="M86.05,83.11a10.19,10.19,0,0,0,.72-3.7c-.07-.36-.14-.73-.23-1.12-.21-1-.41-1.83-.6-2.66a1.56,1.56,0,0,0-.82-.69c-3.11-.92-8.34,7.4-9.66,6.68s2.91-11.88,2.93-11.87-.63,8.2-6,12.18c-1.26.94-3.47,2.16-3.32,3.64a2.48,2.48,0,0,0,1.56,1.93,11.15,11.15,0,0,0,1.65.17,26.37,26.37,0,0,0,7-.6,4.72,4.72,0,0,1,2.57-.15,3.44,3.44,0,0,1,.67.26A8.84,8.84,0,0,0,86.05,83.11Z"/><g id="Layer_3" data-name="Layer 3"><path class="cls-2" d="M2.12,86.45c-.26.27.16,1.25.76,2,.87,1.05,1.85,1.23,4.08,2C10.65,91.6,10.86,92,12.4,92c.45,0,3.13,0,3.48-1.06S13.73,87.15,11,86.91c-1.06-.1-1.3.25-4.08.3a10.3,10.3,0,0,1-2.57-.15C3.05,86.75,2.37,86.2,2.12,86.45Z"/></g></g><g id="Layer_6" data-name="Layer 6"><path class="cls-4" d="M86.54,78.29c-1.37-6.16-2.11-9.49-4.69-10.89a12.93,12.93,0,0,1-3.93-2.72,11.38,11.38,0,0,1-1.21-1.51,26.27,26.27,0,0,0-7.26-6.81C64.79,53.61,58.58,53.31,56,53.19a8.28,8.28,0,0,1-2-.3c-2.41-.68-3.34-2.18-4.69-3.18-2.77-2-6.54-1.4-10.28-.76-2,.34-4.63.8-6.5,2.27a8,8,0,0,1-1.66,1.06,9.54,9.54,0,0,1-3.33.76c-.38.05-4,.59-6,3-1.08,1.28-1,2.21-2.42,3.18a5.56,5.56,0,0,1-2.27.91,23.09,23.09,0,0,0-7,3.18,19.3,19.3,0,0,0-6.5,9.07c-.11.3-.68,1.93-1.36,3.93-.24.7-.4,1.38-.6,1.81A16.77,16.77,0,0,0,0,84C0,85.71.56,87.47,1.71,91a5.1,5.1,0,0,0,1.21,2.27,5.61,5.61,0,0,0,3.63,1.36,11.36,11.36,0,0,0,5.9-1.21A21.11,21.11,0,0,0,16.07,91a16.76,16.76,0,0,1,8.17-2.72A9.9,9.9,0,0,1,27,87.36c.25,0,.63-.11,1.11-.15l-.24-.46a12.94,12.94,0,0,1-.91-1.81c-.62-2.37-1.1-4.18-.6-6.35.43-1.9,1.19-2.24,2-3.93,1.58-3.43,0-5.44-.15-13.46-.14-6.14.73-6.68,1.06-6.81,1-.35,2.41,1,3.18,2.12,1.09,1.54,1.17,2.94,1.06,9.22-.1,5.81-.16,8.75-.45,10.21a19.88,19.88,0,0,0-.45,3.7A25.18,25.18,0,0,0,32.67,83a14,14,0,0,1,.3,3.93,6.65,6.65,0,0,1-.41,1.24,7.67,7.67,0,0,1,1.2.88c3.35,2.88,11,4.84,13.91,2.12.73-.69.64-1.2,1.66-2s2.09-.84,4.39-1.21c3.94-.63,4.24-1.17,7.86-1.51.92-.09,1.54-.15,2.42-.15,4.19,0,4.81,1.22,8.32,1.36a26.37,26.37,0,0,0,7-.6,4.72,4.72,0,0,1,2.57-.15c1.21.32,1.56,1.08,2.42,1.06,1.08,0,1.86-1.26,2.12-1.66C87.12,85.16,87.66,83.31,86.54,78.29Z"/><path class="cls-2" d="M32.67,83a25.18,25.18,0,0,1-.15-3.33A19.88,19.88,0,0,1,33,76c.29-1.46.35-4.4.45-10.21.11-6.28,0-7.69-1.06-9.22-.76-1.07-2.21-2.47-3.18-2.12-.33.12-1.2.66-1.06,6.81.18,8,1.73,10,.15,13.46-.78,1.7-1.53,2-2,3.93-.49,2.17,0,4,.6,6.35a12.94,12.94,0,0,0,.91,1.81l.24.46a7.82,7.82,0,0,1,4.18.75l.31.18A6.65,6.65,0,0,0,33,86.91,14,14,0,0,0,32.67,83Z"/></g><g id="Layer_2" data-name="Layer 2"><path class="cls-4" d="M81.63,84.37c-2.45.8-3.49-.55-7.11.6a4.19,4.19,0,0,1-2.87.3,3,3,0,0,1-2-2.72c.09-1.3,1.52-1.62,3.18-3.18,2-1.89,1.46-2.88,4.08-7.26,1.95-3.25,2.93-4.89,4.23-4.84.51,0,.84.29,3.09,2.95a5.73,5.73,0,0,0-2.45-2.83,12.93,12.93,0,0,1-3.93-2.72,11.2,11.2,0,0,1-1-1.19l-.11.32c-.93,2.71-2.69,4.55-5,7-1.93,2-2.47,2.12-3.63,3.78C66.5,76.93,67,77.59,65.6,79.23a11.12,11.12,0,0,1-6,3.33c-1.83.46-3.17.79-4.54.15-2-.92-2.62-3.2-3-4.69-.77-2.8,0-3.51,0-8.32,0-3.54-.4-4.56-.3-9.22a22.37,22.37,0,0,1,.45-4.08,11.47,11.47,0,0,1,1.14-3.75c-1.9-.75-2.77-2-4-2.93h0c.1.85.11,1.88.12,3.06a28.85,28.85,0,0,1-.3,4.08c-.53,4.45-.8,6.68-1.06,8.17-.74,4.21-1,3.57-1.51,7a72.81,72.81,0,0,0-.91,8.77c-.08,3.38.21,4.51-.76,5.6-1.59,1.79-4.68,1.29-5.14,1.21a8.14,8.14,0,0,1-5.44-4.23c-1.15-2.38-.46-4.3,0-8,.37-2.95.24-6,0-12.1A97.86,97.86,0,0,0,33,50.88c-.17.11-.33.21-.49.34a8,8,0,0,1-1.66,1.06,6.83,6.83,0,0,1-1.48.5l.23.14c1,.68.79,2,.91,5.29.22,6.27,1,5.56,1.06,10.89,0,4.46-.58,3-1.06,9.07A6.12,6.12,0,0,1,29,81.95a2.08,2.08,0,0,1-1.51.76,2,2,0,0,1-1.36-.76c-1.69-1.84-1.93-7-2-7.71A62.75,62.75,0,0,0,23,65.62,30.09,30.09,0,0,0,20.25,58a3.93,3.93,0,0,1-1.19,1.23,5.56,5.56,0,0,1-2.27.91,23.09,23.09,0,0,0-7,3.18,17.18,17.18,0,0,0-4.09,4.35,13.22,13.22,0,0,1,.88-1c2.45-2.51,4.54-2.82,5-2.87a3.58,3.58,0,0,1,2,.15c1.62.71,1.89,2.82,2.57,5.44a40.19,40.19,0,0,0,3.78,10.13C20.87,81.17,22,82.8,21.74,85A5.65,5.65,0,0,1,21,87.09a12.71,12.71,0,0,1-7.71,1.81c-4.43-.5-5.45-3.52-10.74-4.08A4,4,0,0,1,0,84v0c-.06,1.68.51,3.44,1.66,7a5.1,5.1,0,0,0,1.21,2.27,5.61,5.61,0,0,0,3.63,1.36,11.36,11.36,0,0,0,5.9-1.21A21.1,21.1,0,0,0,16,91a16.76,16.76,0,0,1,8.17-2.72,9.9,9.9,0,0,1,2.72-.91,8.42,8.42,0,0,1,5.29.6A7.07,7.07,0,0,1,33.73,89c3.35,2.88,11,4.84,13.91,2.12.73-.69.64-1.2,1.66-2s2.09-.84,4.39-1.21c3.94-.63,4.24-1.17,7.86-1.51.92-.09,1.54-.15,2.42-.15,4.19,0,4.81,1.22,8.32,1.36a26.37,26.37,0,0,0,7-.6,4.72,4.72,0,0,1,2.57-.15C83,87.23,83.38,88,84.24,88c1.08,0,1.86-1.26,2.12-1.66.66-1,1.16-2.68.41-6.75A9.45,9.45,0,0,1,81.63,84.37Z"/><path class="cls-3" d="M2.54,84.82c5.28.57,6.3,3.58,10.74,4.08A12.71,12.71,0,0,0,21,87.09,5.65,5.65,0,0,0,21.74,85c.3-2.17-.88-3.81-1.81-5.44A40.19,40.19,0,0,1,16.15,69.4c-.68-2.62-1-4.74-2.57-5.44a3.58,3.58,0,0,0-2-.15c-.45.06-2.54.36-5,2.87a13.22,13.22,0,0,0-.88,1,21.24,21.24,0,0,0-2.41,4.72c-.11.3-.68,1.93-1.36,3.93-.24.7-.4,1.38-.6,1.81A16.76,16.76,0,0,0,0,84,4,4,0,0,0,2.54,84.82Z"/><path class="cls-3" d="M24.16,74.24c0,.7.28,5.87,2,7.71a2,2,0,0,0,1.36.76A2.08,2.08,0,0,0,29,81.95a6.12,6.12,0,0,0,1.51-3.78c.48-6.11,1.07-4.61,1.06-9.07,0-5.33-.84-4.62-1.06-10.89-.12-3.29.07-4.61-.91-5.29l-.23-.14c-.68.15-1.28.18-1.85.25-.38.05-4,.59-6,3A12.8,12.8,0,0,0,20.25,58,30.09,30.09,0,0,1,23,65.62,62.75,62.75,0,0,1,24.16,74.24Z"/><path class="cls-3" d="M34.29,75.3c-.46,3.71-1.15,5.64,0,8a8.14,8.14,0,0,0,5.44,4.23c.46.08,3.55.58,5.14-1.21,1-1.08.67-2.22.76-5.6A72.81,72.81,0,0,1,46.54,72c.54-3.39.77-2.74,1.51-7,.26-1.48.53-3.71,1.06-8.17a28.85,28.85,0,0,0,.3-4.08c0-1.18,0-2.21-.12-3.06-2.77-2-6.54-1.4-10.28-.75a16,16,0,0,0-6,1.93A97.86,97.86,0,0,1,34.29,63.2C34.54,69.3,34.66,72.35,34.29,75.3Z"/><path class="cls-3" d="M51.69,60.48c-.1,4.66.31,5.69.3,9.22,0,4.81-.77,5.52,0,8.32.41,1.48,1.07,3.77,3,4.69,1.37.64,2.7.31,4.54-.15a11.12,11.12,0,0,0,6-3.33c1.4-1.64.9-2.3,2.57-4.69,1.16-1.66,1.7-1.76,3.63-3.78,2.3-2.41,4.06-4.25,5-7l.11-.32-.22-.32a26.27,26.27,0,0,0-7.26-6.81C64.75,53.61,58.54,53.31,56,53.19a8.28,8.28,0,0,1-2-.3,7.38,7.38,0,0,1-.71-.24,11.47,11.47,0,0,0-1.14,3.75A22.37,22.37,0,0,0,51.69,60.48Z"/><path class="cls-3" d="M81.17,67.28c-1.3,0-2.29,1.59-4.23,4.84-2.63,4.38-2.08,5.37-4.08,7.26-1.66,1.56-3.09,1.87-3.18,3.18a3,3,0,0,0,2,2.72,4.19,4.19,0,0,0,2.87-.3c3.61-1.16,4.66.19,7.11-.6a9.45,9.45,0,0,0,5.13-4.82c-.07-.4-.16-.81-.26-1.26a43.34,43.34,0,0,0-2.24-8.06C82,67.58,81.68,67.3,81.17,67.28Z"/></g><g id="Layer_7" data-name="Layer 7"><path class="cls-5" d="M64.43,56.66c-2.76-.28-4.14-.42-4.69.3-.4.53,0,.91.82,4.85.21,1.05.26,1.4.6,1.66.92.68,2.71-.13,4.08-.76s1.75-1,2.57-.91.89.66,1.66.76A2.39,2.39,0,0,0,72,60.91a2.36,2.36,0,0,0-.76-1.81,6.45,6.45,0,0,0-3.51-1.8A18.66,18.66,0,0,0,64.43,56.66Z"/><path class="cls-5" d="M38.52,53.67A4.81,4.81,0,0,1,39.42,52a4.64,4.64,0,0,1,3.07-1.24,6.47,6.47,0,0,1,3.43.79c.8.38,1.23.59,1.51,1.08a3.33,3.33,0,0,1-.25,2.82A5,5,0,0,1,45,58.21c-.87.45-1.36.25-5-.15-2.7-.3-3.44-.26-3.63-.76C36.13,56.61,37.42,56.09,38.52,53.67Z"/><path class="cls-5" d="M28,54.55c-1.14-.8-3.2.27-4.28,1.34a2.93,2.93,0,0,0-1.21,2.42,2.28,2.28,0,0,0,2,2c1.14,0,1.56-1.63,2.57-1.51S28.15,60.1,28.59,60s.59-2,.26-3.5C28.63,55.5,28.5,54.91,28,54.55Z"/><path class="cls-5" d="M11.65,66.47c-.31,0-1.2,0-3.33,1.51-1.83,1.27-2.78,1.95-3,3.18-.1.5-.18,1.55.3,1.81.78.43,1.87-1.88,4.54-2.42,1.18-.24,1.66.07,2.42-.45.91-.63,1.57-2,1.06-2.87S12,66.47,11.65,66.47Z"/><path class="cls-5" d="M84.67,76.46a4.35,4.35,0,0,0-3.48-1.21c-2,.39-1.77,2.45-4.39,3.48-1,.38-1.85.43-2.27,1.21a1.72,1.72,0,0,0,0,1.66c.42.64,1.3.59,3.78.6,3.83,0,4.3.17,5.29-.3a3.74,3.74,0,0,0,2.27-2.27A3.69,3.69,0,0,0,84.67,76.46Z"/></g><path class="cls-1" d="M153,56.3c-2.06-2.44-5.67-3-6-3a9.54,9.54,0,0,1-3.33-.76A8,8,0,0,1,142,51.47c-1.87-1.47-4.54-1.93-6.5-2.27-3.74-.64-7.51-1.29-10.28.76-1.35,1-2.28,2.49-4.69,3.18a8.28,8.28,0,0,1-2,.3c-2.59.13-8.79.43-13.46,3.18a26.27,26.27,0,0,0-7.26,6.81,11.38,11.38,0,0,1-1.21,1.51,12.93,12.93,0,0,1-3.93,2.72C90.1,69,89.36,72.37,88,78.53c-1.11,5-.58,6.87.15,8,.26.41,1,1.63,2.12,1.66.86,0,1.21-.73,2.42-1.06a4.72,4.72,0,0,1,2.57.15,26.37,26.37,0,0,0,7,.6c3.51-.14,4.12-1.39,8.32-1.36.88,0,1.5.06,2.42.15,3.63.34,3.93.88,7.86,1.51,2.3.37,3.24.35,4.39,1.21s.93,1.28,1.66,2c2.88,2.72,10.56.77,13.91-2.12a7.07,7.07,0,0,1,1.51-1.06,8.42,8.42,0,0,1,5.29-.6,9.9,9.9,0,0,1,2.72.91,16.76,16.76,0,0,1,8.17,2.72,21.1,21.1,0,0,0,3.63,2.42,11.36,11.36,0,0,0,5.9,1.21,5.61,5.61,0,0,0,3.63-1.36,5.1,5.1,0,0,0,1.21-2.27c1.15-3.52,1.72-5.28,1.66-7a16.77,16.77,0,0,0-1.36-5.9c-.21-.44-.37-1.12-.6-1.81-.68-2-1.25-3.63-1.36-3.93a19.3,19.3,0,0,0-6.5-9.07,23.09,23.09,0,0,0-7-3.18,5.56,5.56,0,0,1-2.27-.91C154,58.52,154.1,57.58,153,56.3Z"/><path class="cls-4" d="M105.37,85.81c.19-1.53-1.72-3-3.32-3.64a7.51,7.51,0,0,0-3-.31c-5-.08-7.48-7.32-9.66-6.68a1.56,1.56,0,0,0-.82.69c.78-3.38,1.47-5.67,2.7-7.1a28.24,28.24,0,0,0,2.18,3.71c.34.51,3.92,5.93,5.29,5.29,1-.46.33-4,0-5.29a14.26,14.26,0,0,0-2.27-4.84,22,22,0,0,0-2.08-.94,11,11,0,0,0,2.19-1.78,11.38,11.38,0,0,0,1.21-1.51A26.27,26.27,0,0,1,105,56.61c4.67-2.75,10.87-3.05,13.46-3.18a8.28,8.28,0,0,0,2-.3c2.41-.68,3.34-2.18,4.69-3.18,2.77-2,6.54-1.4,10.28-.76,2,.34,4.63.8,6.5,2.27a8,8,0,0,0,1.66,1.06,9.54,9.54,0,0,0,3.33.76c.38.05,4,.59,6,3,1.08,1.28,1,2.21,2.42,3.18a5.56,5.56,0,0,0,2.27.91,23.09,23.09,0,0,1,7,3.18,19.3,19.3,0,0,1,6.5,9.07c.11.3.68,1.93,1.36,3.93.24.7.4,1.38.6,1.81a16.77,16.77,0,0,1,1.36,5.9c.06,1.68-.51,3.44-1.66,7a5.1,5.1,0,0,1-1.21,2.27A5.61,5.61,0,0,1,168,94.87a11.36,11.36,0,0,1-5.9-1.21,20,20,0,0,1-3.55-2.37l.11-.05c4-2.13,1.71-12.19,1.36-13.76-.86-3.84-2.54-7.57-3.48-7.41-.6.1-.27,1.67-1.66,4.39-.7,1.36-1.16,1.69-2.12,3.63-.66,1.32-.48,1.25-1.06,2.42-1.25,2.54-2.05,2.84-2.72,4.84a4.3,4.3,0,0,0-.37,2.51,9.79,9.79,0,0,0-1-.24,8.42,8.42,0,0,0-5.29.6l0,0c.9-1.19,1.19-2.61.84-2.9-.52-.43-2.15,1.84-4.23,1.51-1.27-.2-1.35-1.15-2.87-2-2.62-1.4-4.49.3-5.75-.76-1.53-1.28.58-4.35.45-9.83-.09-4.07-1.39-8.67-2.87-8.77-1.14-.08-2.19,2.52-2.57,3.48-1.12,2.78-1.11,5.47-1.06,9.22a22.55,22.55,0,0,1-.45,5.44c-.25,1.17-.59,2.66-1.21,2.72-.8.08-1.64-2.23-1.81-2.72-1.21-3.33-.41-5.53-1.06-5.75s-1.83,1.6-2.9,3.72a8.41,8.41,0,0,0-1.94-1.9c-1.94-1.33-3.41-.75-4.54-2.27-1-1.29-.35-2.31-1.06-4.23-.57-1.55-1.59-2.38-3.48-4.08-2.1-1.9-3.69-3.33-4.54-2.87-1.16.62-.25,4.41,0,5.44.45,1.88.88,2.42,2.87,6.65a54.38,54.38,0,0,0,3.63,7.11c.29.46.55.84.78,1.17-1.93.23-2.93.79-4.62,1.08C104.62,87.16,105.27,86.62,105.37,85.81Z"/><path class="cls-4" d="M87.72,79.66a10.19,10.19,0,0,0,.72,3.7A8.84,8.84,0,0,0,92,87.42c-.7.36-1.07.82-1.75.8-1.08,0-1.86-1.26-2.12-1.66C87.43,85.49,86.93,83.84,87.72,79.66Z"/><path class="cls-4" d="M139.89,89.91a17.25,17.25,0,0,1-6.52,2.56,4.87,4.87,0,0,1,.44-.47C135.72,90.22,137.94,90.58,139.89,89.91Z"/><path class="cls-2" d="M148.93,85.34c.67-2,1.47-2.3,2.72-4.84a15,15,0,0,0,.63-1.49c.2-.5.38-.84.42-.92.61-1.23,1.79-8.14,4.54-11,2.21-2.34,6.4-3.09,7.49-1.82,1.37,1.6-3.64,4.81-4.77,12.26-.94,6.21,1.22,12.37-1.36,13.76l-.11.05-.07-.05a16.76,16.76,0,0,0-8.17-2.72,10,10,0,0,0-1.69-.66A4.3,4.3,0,0,1,148.93,85.34Z"/><path class="cls-2" d="M116.7,81.65c2.52-11,3.88-12.4,4.56-12.34,1.35.13,2.75,6.38,2,12.1-.36,2.64-1.14,4.84-.76,5s1.92-1.88,2.57-4.08a18.06,18.06,0,0,0,0-9.4c-2.4-10-.49-19.87,0-19.91s.29,5.13,2.68,12.52c1.68,5.19,2.8,5.58,2.87,8.77.12,5.48-2,8.55-.45,9.83,1.26,1.05,3.13-.64,5.75.76,1.64.88,1.77,1.92,2.87,2,2.23.1,3.83-4.16,4.39-3.93.28.11.2,1.29-1,5.32a7.17,7.17,0,0,0-1.47,1,9.89,9.89,0,0,1-.84.64c-1.95.67-4.17.31-6.08,2.08a4.87,4.87,0,0,0-.44.47c-2.62.46-5.15.24-6.55-1.08-.73-.69-.64-1.2-1.66-2s-2.09-.84-4.39-1.21a37.32,37.32,0,0,1-3.76-.79,3.48,3.48,0,0,0,.77-1.18C118.35,84.75,117.72,83,116.7,81.65Z"/><path class="cls-2" d="M106.59,80.8c-.06-.64-.21-1.36-2.87-5.75-3.49-5.76-5.8-8.78-5.28-9.34.33-.36,1.24,0,2.71.57a14.41,14.41,0,0,1,4.54,2.87c1.89,1.7,2.91,2.53,3.48,4.08.71,1.92.1,2.94,1.06,4.23,1.13,1.52,2.59.94,4.54,2.27a8.41,8.41,0,0,1,1.94,1.9c1,1.38,1.66,3.1,1.08,4.6a3.48,3.48,0,0,1-.77,1.18,23,23,0,0,0-4.11-.72c-.92-.09-1.54-.15-2.42-.15a16.06,16.06,0,0,0-2.05.11,7.89,7.89,0,0,1-.78-1.17A10.35,10.35,0,0,1,106.59,80.8Z"/><path class="cls-2" d="M103.56,81.12c-.6.56-2.37-.41-3.32-.93-2.63-1.43-4.27-3.9-6.74-7.61l-.07-.1a28.24,28.24,0,0,1-2.18-3.71,4.86,4.86,0,0,1,1.39-1.13c.37-.2,1-.48,1.74-.94a22,22,0,0,1,2.08.94C103.29,77.36,104.31,80.44,103.56,81.12Z"/><path class="cls-2" d="M88.44,83.35a10.19,10.19,0,0,1-.72-3.7c.07-.36.14-.73.23-1.12.21-1,.41-1.83.6-2.66a1.56,1.56,0,0,1,.82-.69c3.11-.92,8.34,7.4,9.66,6.68S96.12,70,96.1,70s.63,8.2,6,12.18c1.26.94,3.47,2.16,3.32,3.64a2.48,2.48,0,0,1-1.56,1.93,11.15,11.15,0,0,1-1.65.17,26.37,26.37,0,0,1-7-.6,4.72,4.72,0,0,0-2.57-.15,3.44,3.44,0,0,0-.67.26A8.84,8.84,0,0,1,88.44,83.35Z"/><path class="cls-2" d="M172.37,86.7c.26.27-.16,1.25-.76,2-.87,1.05-1.85,1.23-4.08,2-3.69,1.21-3.9,1.66-5.44,1.66-.45,0-3.13,0-3.48-1.06s2.15-3.84,4.84-4.08c1.06-.1,1.3.25,4.08.3a10.3,10.3,0,0,0,2.57-.15C171.45,87,172.13,86.45,172.37,86.7Z"/><path class="cls-4" d="M88,78.53c1.37-6.16,2.11-9.49,4.69-10.89a12.93,12.93,0,0,0,3.93-2.72,11.38,11.38,0,0,0,1.21-1.51A26.27,26.27,0,0,1,105,56.61c4.67-2.75,10.87-3.05,13.46-3.18a8.28,8.28,0,0,0,2-.3c2.41-.68,3.34-2.18,4.69-3.18,2.77-2,6.54-1.4,10.28-.76,2,.34,4.63.8,6.5,2.27a8,8,0,0,0,1.66,1.06,9.54,9.54,0,0,0,3.33.76c.38.05,4,.59,6,3,1.08,1.28,1,2.21,2.42,3.18a5.56,5.56,0,0,0,2.27.91,23.09,23.09,0,0,1,7,3.18,19.3,19.3,0,0,1,6.5,9.07c.11.3.68,1.93,1.36,3.93.24.7.4,1.38.6,1.81a16.77,16.77,0,0,1,1.36,5.9c.06,1.68-.51,3.44-1.66,7a5.1,5.1,0,0,1-1.21,2.27A5.61,5.61,0,0,1,168,94.87a11.36,11.36,0,0,1-5.9-1.21,21.11,21.11,0,0,1-3.63-2.42,16.76,16.76,0,0,0-8.17-2.72,9.9,9.9,0,0,0-2.72-.91c-.25,0-.63-.11-1.11-.15l.24-.46a12.94,12.94,0,0,0,.91-1.81c.62-2.37,1.1-4.18.6-6.35-.43-1.9-1.19-2.24-2-3.93-1.58-3.43,0-5.44.15-13.46.14-6.14-.73-6.68-1.06-6.81-1-.35-2.41,1-3.18,2.12C141,58.29,141,59.7,141.07,66c.1,5.81.16,8.75.45,10.21a19.88,19.88,0,0,1,.45,3.7,25.18,25.18,0,0,1-.15,3.33,14,14,0,0,0-.3,3.93,6.65,6.65,0,0,0,.41,1.24,7.67,7.67,0,0,0-1.2.88c-3.35,2.88-11,4.84-13.91,2.12-.73-.69-.64-1.2-1.66-2s-2.09-.84-4.39-1.21c-3.94-.63-4.24-1.17-7.86-1.51-.92-.09-1.54-.15-2.42-.15-4.19,0-4.81,1.22-8.32,1.36a26.37,26.37,0,0,1-7-.6,4.72,4.72,0,0,0-2.57-.15c-1.21.32-1.56,1.08-2.42,1.06-1.08,0-1.86-1.26-2.12-1.66C87.38,85.4,86.84,83.56,88,78.53Z"/><path class="cls-2" d="M141.83,83.22A25.18,25.18,0,0,0,142,79.9a19.88,19.88,0,0,0-.45-3.7c-.29-1.46-.35-4.4-.45-10.21-.11-6.28,0-7.69,1.06-9.22.76-1.07,2.21-2.47,3.18-2.12.33.12,1.2.66,1.06,6.81-.18,8-1.73,10-.15,13.46.78,1.7,1.53,2,2,3.93.49,2.17,0,4-.6,6.35a12.94,12.94,0,0,1-.91,1.81l-.24.46a7.82,7.82,0,0,0-4.18.75l-.31.18a6.65,6.65,0,0,1-.41-1.24A14,14,0,0,1,141.83,83.22Z"/><path class="cls-4" d="M92.87,84.62c2.45.8,3.49-.55,7.11.6a4.19,4.19,0,0,0,2.87.3,3,3,0,0,0,2-2.72c-.09-1.3-1.52-1.62-3.18-3.18-2-1.89-1.46-2.88-4.08-7.26-1.95-3.25-2.93-4.89-4.23-4.84-.51,0-.84.29-3.09,2.95a5.73,5.73,0,0,1,2.45-2.83,12.93,12.93,0,0,0,3.93-2.72,11.2,11.2,0,0,0,1-1.19l.11.32c.93,2.71,2.69,4.55,5,7,1.93,2,2.47,2.12,3.63,3.78,1.67,2.39,1.17,3.05,2.57,4.69a11.12,11.12,0,0,0,6,3.33c1.83.46,3.17.79,4.54.15,2-.92,2.62-3.2,3-4.69.77-2.8,0-3.51,0-8.32,0-3.54.4-4.56.3-9.22a22.37,22.37,0,0,0-.45-4.08,11.47,11.47,0,0,0-1.14-3.75c1.9-.75,2.77-2,4-2.93h0c-.1.85-.11,1.88-.12,3.06a28.85,28.85,0,0,0,.3,4.08c.53,4.45.8,6.68,1.06,8.17.74,4.21,1,3.57,1.51,7a72.81,72.81,0,0,1,.91,8.77c.08,3.38-.21,4.51.76,5.6,1.59,1.79,4.68,1.29,5.14,1.21a8.14,8.14,0,0,0,5.44-4.23c1.15-2.38.46-4.3,0-8-.37-2.95-.24-6,0-12.1a97.86,97.86,0,0,1,1.29-12.32c.17.11.33.21.49.34a8,8,0,0,0,1.66,1.06,6.83,6.83,0,0,0,1.48.5l-.23.14c-1,.68-.79,2-.91,5.29-.22,6.27-1,5.56-1.06,10.89,0,4.46.58,3,1.06,9.07a6.12,6.12,0,0,0,1.51,3.78A2.08,2.08,0,0,0,147,83a2,2,0,0,0,1.36-.76c1.69-1.84,1.93-7,2-7.71a62.75,62.75,0,0,1,1.21-8.62,30.09,30.09,0,0,1,2.7-7.62,3.93,3.93,0,0,0,1.19,1.23,5.56,5.56,0,0,0,2.27.91,23.09,23.09,0,0,1,7,3.18,17.18,17.18,0,0,1,4.09,4.35,13.22,13.22,0,0,0-.88-1c-2.45-2.51-4.54-2.82-5-2.87a3.58,3.58,0,0,0-2,.15c-1.62.71-1.89,2.82-2.57,5.44a40.19,40.19,0,0,1-3.78,10.13c-.94,1.64-2.11,3.27-1.81,5.44a5.65,5.65,0,0,0,.76,2.12,12.71,12.71,0,0,0,7.71,1.81c4.43-.5,5.45-3.52,10.74-4.08a4,4,0,0,0,2.53-.83v0c.06,1.68-.51,3.44-1.66,7a5.1,5.1,0,0,1-1.21,2.27A5.61,5.61,0,0,1,168,94.87a11.36,11.36,0,0,1-5.9-1.21,21.1,21.1,0,0,1-3.63-2.42,16.76,16.76,0,0,0-8.17-2.72,9.9,9.9,0,0,0-2.72-.91,8.42,8.42,0,0,0-5.29.6,7.07,7.07,0,0,0-1.51,1.06c-3.35,2.88-11,4.84-13.91,2.12-.73-.69-.64-1.2-1.66-2s-2.09-.84-4.39-1.21c-3.94-.63-4.24-1.17-7.86-1.51-.92-.09-1.54-.15-2.42-.15-4.19,0-4.81,1.22-8.32,1.36a26.37,26.37,0,0,1-7-.6,4.72,4.72,0,0,0-2.57-.15c-1.21.32-1.56,1.08-2.42,1.06-1.08,0-1.86-1.26-2.12-1.66-.66-1-1.16-2.68-.41-6.75A9.45,9.45,0,0,0,92.87,84.62Z"/><path class="cls-3" d="M172,85.07c-5.28.57-6.3,3.58-10.74,4.08a12.71,12.71,0,0,1-7.71-1.81,5.65,5.65,0,0,1-.76-2.12c-.3-2.17.88-3.81,1.81-5.44a40.19,40.19,0,0,0,3.78-10.13c.68-2.62,1-4.74,2.57-5.44a3.58,3.58,0,0,1,2-.15c.45.06,2.54.36,5,2.87a13.22,13.22,0,0,1,.88,1,21.24,21.24,0,0,1,2.41,4.72c.11.3.68,1.93,1.36,3.93.24.7.4,1.38.6,1.81a16.76,16.76,0,0,1,1.36,5.85A4,4,0,0,1,172,85.07Z"/><path class="cls-3" d="M150.33,74.48c0,.7-.28,5.87-2,7.71A2,2,0,0,1,147,83a2.08,2.08,0,0,1-1.51-.76A6.12,6.12,0,0,1,144,78.42c-.48-6.11-1.07-4.61-1.06-9.07,0-5.33.84-4.62,1.06-10.89.12-3.29-.07-4.61.91-5.29l.23-.14c.68.15,1.28.18,1.85.25.38.05,4,.59,6,3a12.8,12.8,0,0,1,1.23,1.94,30.09,30.09,0,0,0-2.7,7.62A62.75,62.75,0,0,0,150.33,74.48Z"/><path class="cls-3" d="M140.2,75.54c.46,3.71,1.15,5.64,0,8a8.14,8.14,0,0,1-5.44,4.23c-.46.08-3.55.58-5.14-1.21-1-1.08-.67-2.22-.76-5.6a72.81,72.81,0,0,0-.91-8.77c-.54-3.39-.77-2.74-1.51-7-.26-1.48-.53-3.71-1.06-8.17a28.85,28.85,0,0,1-.3-4.08c0-1.18,0-2.21.12-3.06,2.77-2,6.54-1.4,10.28-.75a16,16,0,0,1,6,1.93,97.86,97.86,0,0,0-1.29,12.32C140,69.55,139.84,72.6,140.2,75.54Z"/><path class="cls-3" d="M122.81,60.72c.1,4.66-.31,5.69-.3,9.22,0,4.81.77,5.52,0,8.32-.41,1.48-1.07,3.77-3,4.69-1.37.64-2.7.31-4.54-.15a11.12,11.12,0,0,1-6-3.33c-1.4-1.64-.9-2.3-2.57-4.69-1.16-1.66-1.7-1.76-3.63-3.78-2.3-2.41-4.06-4.25-5-7l-.11-.32.22-.32a26.27,26.27,0,0,1,7.26-6.81c4.67-2.75,10.87-3.05,13.46-3.18a8.28,8.28,0,0,0,2-.3,7.38,7.38,0,0,0,.71-.24,11.47,11.47,0,0,1,1.14,3.75A22.37,22.37,0,0,1,122.81,60.72Z"/><path class="cls-3" d="M93.32,67.53c1.3,0,2.29,1.59,4.23,4.84,2.63,4.38,2.08,5.37,4.08,7.26,1.66,1.56,3.09,1.87,3.18,3.18a3,3,0,0,1-2,2.72,4.19,4.19,0,0,1-2.87-.3c-3.61-1.16-4.66.19-7.11-.6a9.45,9.45,0,0,1-5.13-4.82c.07-.4.16-.81.26-1.26a43.34,43.34,0,0,1,2.24-8.06C92.49,67.82,92.81,67.55,93.32,67.53Z"/><path class="cls-5" d="M110.07,56.91c2.76-.28,4.14-.42,4.69.3.4.53,0,.91-.82,4.85-.21,1.05-.26,1.4-.6,1.66-.92.68-2.71-.13-4.08-.76s-1.75-1-2.57-.91-.89.66-1.66.76a2.39,2.39,0,0,1-2.57-1.66,2.36,2.36,0,0,1,.76-1.81,6.45,6.45,0,0,1,3.51-1.8A18.66,18.66,0,0,1,110.07,56.91Z"/><path class="cls-5" d="M136,53.92a4.81,4.81,0,0,0-.91-1.66A4.64,4.64,0,0,0,132,51a6.47,6.47,0,0,0-3.43.79c-.8.38-1.23.59-1.51,1.08a3.33,3.33,0,0,0,.25,2.82,5,5,0,0,0,2.17,2.75c.87.45,1.36.25,5-.15,2.7-.3,3.44-.26,3.63-.76C138.36,56.86,137.07,56.33,136,53.92Z"/><path class="cls-5" d="M146.51,54.79c1.14-.8,3.2.27,4.28,1.34A2.93,2.93,0,0,1,152,58.55a2.28,2.28,0,0,1-2,2c-1.14,0-1.56-1.63-2.57-1.51s-1.12,1.34-1.56,1.23-.59-2-.26-3.5C145.87,55.75,146,55.15,146.51,54.79Z"/><path class="cls-5" d="M162.85,66.72c.31,0,1.2,0,3.33,1.51,1.83,1.27,2.78,1.95,3,3.18.1.5.18,1.55-.3,1.81-.78.43-1.87-1.88-4.54-2.42-1.18-.24-1.66.07-2.42-.45-.91-.63-1.57-2-1.06-2.87S162.5,66.72,162.85,66.72Z"/><path class="cls-5" d="M89.83,76.7a4.35,4.35,0,0,1,3.48-1.21c2,.39,1.77,2.45,4.39,3.48,1,.38,1.85.43,2.27,1.21a1.72,1.72,0,0,1,0,1.66c-.42.64-1.3.59-3.78.6-3.83,0-4.3.17-5.29-.3a3.74,3.74,0,0,1-2.27-2.27A3.69,3.69,0,0,1,89.83,76.7Z"/></g><g id="Layer_14" data-name="Layer 14"><path d="M15.42,11.16,14.47,22l6.38.56a4.43,4.43,0,0,1,3.24,1.22,3.6,3.6,0,0,1,.82,2c.34,2.49,2.63,12.47,7,16.1,1,.78,3.5,1.2,8.54,2,6.86,1.08,11.2,1.76,17,1.35s8.8-.62,11.13-2.34c4.11-3,5.56-8.57,7.26-15,.61-2.32,1-4.27,1.18-5.57a12.07,12.07,0,0,1,2.1-5.07,11.07,11.07,0,0,1,4.72-3.87c4.1-1.66,6.81.63,9.27-1.52.09-.08,0,0,1.38-2.8A2.39,2.39,0,0,0,95,7.51,2.23,2.23,0,0,0,94,6.2a10.91,10.91,0,0,0-3.12-.93s-5.41-1.15-9.75-1.68l-2.79-.33C57.61,1.39,55.47,1.2,51.17.83h0c-1.47-.11.4,0-6.32-.41-7.54-.5-9.87-.68-13,.24a11.44,11.44,0,0,0-4.61,2.09C24,5.41,24.54,8.66,21.9,10.57,20.78,11.38,18.87,12,15.42,11.16Z"/><g id="Layer_15" data-name="Layer 15"><path class="cls-6" d="M47.6,4.47S34.2,2.92,31.82,6.71a10.57,10.57,0,0,0-1.1,2.5,9,9,0,0,0-.31,3c.4,5.12.36,19.11,2.59,22.06.22.3.35.86.72,1.5a16.1,16.1,0,0,0,2.82,3.47h0a72.14,72.14,0,0,0,25.6,2.42,14,14,0,0,0,6.14-4.42,13.28,13.28,0,0,0,1.62-2.72,48.88,48.88,0,0,0,3.5-12.09c1.94-10.81,3.07-10.41,2.38-12.06C74.72,7.93,72.25,7.32,47.6,4.47Z"/><path d="M161,23.9,160,34.75l-6.38-.56a4.43,4.43,0,0,0-3.41.64,3.6,3.6,0,0,0-1.15,1.8c-.77,2.4-4.75,11.82-9.74,14.63-1.08.61-3.65.57-8.76.48-6.94-.13-11.34-.21-17-1.62S105,48,103.05,45.87c-3.52-3.71-4-9.4-4.54-16-.2-2.39-.21-4.37-.19-5.69a12.07,12.07,0,0,0-1.19-5.36,11.07,11.07,0,0,0-4-4.63c-3.75-2.35-6.82-.56-8.86-3.11-.08-.1,0,0-.87-3a2.39,2.39,0,0,1-.12-1.58,2.23,2.23,0,0,1,1.16-1.12A10.91,10.91,0,0,1,87.69,5s5.53-.2,9.9,0l2.8.15c20.74,1.77,22.88,2,27.18,2.33h0c1.47.15-.4,0,6.3.69,7.51.82,9.83,1,12.78,2.5a11.44,11.44,0,0,1,4.17,2.85c2.71,3.19,1.62,6.3,3.89,8.64C155.67,23.18,157.44,24.13,161,23.9Z"/><path class="cls-6" d="M130.45,11.72s13.47.8,15.16,4.95a10.57,10.57,0,0,1,.65,2.65,9,9,0,0,1-.23,3.05c-1.28,5-3.68,18.76-6.38,21.28-.27.25-.49.78-1,1.35a16.1,16.1,0,0,1-3.38,2.93h0a72.14,72.14,0,0,1-25.63-2.06,14,14,0,0,1-5.28-5.42,13.28,13.28,0,0,1-1.12-3A48.88,48.88,0,0,1,101.92,25c0-11-1.22-10.79-.25-12.29C103.14,10.42,105.68,10.25,130.45,11.72Z"/></g></g></svg>